<?xml version="1.0" encoding="utf-8"?>
<!-- Generator: Adobe Illustrator 24.0.0, SVG Export Plug-In . SVG Version: 6.00 Build 0)  -->
<svg version="1.1" id="Layer_1" xmlns="http://www.w3.org/2000/svg" xmlns:xlink="http://www.w3.org/1999/xlink" x="0px" y="0px"
	 viewBox="0 0 300 300" style="enable-background:new 0 0 300 300;" xml:space="preserve">
<style type="text/css">
	.st0{fill:#FFF7CC;}
	.st1{fill:#FFE6B3;}
	.st2{fill:#00429D;}
	.st3{fill:#00347B;}
	.st4{fill:#FDBF00;}
	.st5{fill:#FF8856;}
	.st6{font-family:'Rockwell';}
	.st7{font-size:112.5885px;}
</style>
<title>Artboard 2</title>
<path class="st0" d="M284.6,293H15.4c-4.6,0-8.4-3.8-8.4-8.4V87.5c0-4.6,3.7-8.4,8.4-8.4h269.2c4.6,0,8.4,3.7,8.4,8.4v197.1
	C293,289.2,289.2,293,284.6,293L284.6,293z M284.6,293"/>
<path class="st1" d="M284.6,79.1H150V293h134.6c4.6,0,8.4-3.8,8.4-8.4V87.5C293,82.8,289.2,79.1,284.6,79.1L284.6,79.1z M284.6,79.1
	"/>
<path class="st2" d="M293,102.9H7V48.3c0-4.6,3.7-8.4,8.4-8.4h269.2c4.6,0,8.4,3.7,8.4,8.4V102.9z M293,102.9"/>
<path class="st3" d="M150,39.9v63h143V48.3c0-4.6-3.7-8.4-8.4-8.4H150z M150,39.9"/>
<path class="st4" d="M91.4,31.6v8.3h16.8v-8.3c0-7.4-2.9-14-8.2-18.5c-4.6-3.9-10.6-6-17-6c-6.4,0-12.4,2.1-17,6
	c-5.3,4.5-8.2,11.1-8.2,18.5v29.6c0,4.6,3.7,8.4,8.4,8.4c4.6,0,8.4-3.8,8.4-8.4V31.6c0-7.4,7-7.8,8.4-7.8
	C84.4,23.9,91.4,24.2,91.4,31.6L91.4,31.6z M91.4,31.6"/>
<path class="st4" d="M150.6,23.8c4.3,0,7.8,3.5,7.8,7.8v8.3h16.8v-8.3c0-13.5-11-24.6-24.6-24.6h-1.1c-13.5,0-24.6,11-24.6,24.6
	v29.6c0,4.6,3.7,8.4,8.4,8.4s8.4-3.8,8.4-8.4V31.6c0-4.3,3.5-7.8,7.8-7.8H150.6z M150.6,23.8"/>
<path class="st5" d="M217.6,23.8c4.3,0,7.8,3.5,7.8,7.8v8.3h16.8v-8.3c0-13.5-11-24.6-24.6-24.6h-1.1c-13.5,0-24.6,11-24.6,24.6
	v29.6c0,4.6,3.7,8.4,8.4,8.4c4.6,0,8.4-3.8,8.4-8.4V31.6c0-4.3,3.5-7.8,7.8-7.8H217.6z M217.6,23.8"/>
<path class="st5" d="M150.6,7H150v16.8h0.6c4.3,0,7.8,3.5,7.8,7.8v8.3h16.8v-8.3C175.1,18.1,164.1,7,150.6,7L150.6,7z M150.6,7"/>
<text transform="matrix(1 0 0 1 46.6031 226.5001)" class="st5 st6 st7">APP</text>
</svg>
