<?xml version="1.0" encoding="utf-8"?>
<!-- Generator: Adobe Illustrator 24.0.0, SVG Export Plug-In . SVG Version: 6.00 Build 0)  -->
<svg version="1.1" id="Layer_1" xmlns="http://www.w3.org/2000/svg" xmlns:xlink="http://www.w3.org/1999/xlink" x="0px" y="0px"
	 viewBox="0 0 300 300" style="enable-background:new 0 0 300 300;" xml:space="preserve">
<style type="text/css">
	.st0{fill:#E0EDFF;}
	.st1{fill:#7DAFFF;}
	.st2{fill:#548AFF;}
	.st3{fill:#91C0FF;}
	.st4{font-family:'Rockwell';}
	.st5{font-size:45.0328px;}
</style>
<title>Artboard 2</title>
<g>
	<path class="st0" d="M10.3,86.2v189.3c0,5.4,4.3,9.7,9.7,9.7h262.1c5.4,0,9.7-4.3,9.7-9.7V86.2H10.3z M10.3,86.2"/>
	<path class="st1" d="M272.4,110.5H126.8v53.4H29.7v92.2h145.6v-53.4h97.1V110.5z M272.4,110.5"/>
	<path class="st2" d="M291.8,86.2V37.7c0-5.4-4.3-9.7-9.7-9.7H20c-5.4,0-9.7,4.3-9.7,9.7v48.5H291.8z M291.8,86.2"/>
	<path class="st3" d="M83.1,3.7c5.4,0,9.7,4.3,9.7,9.7v38.8c0,5.4-4.3,9.7-9.7,9.7c-5.4,0-9.7-4.3-9.7-9.7V13.4
		C73.4,8,77.7,3.7,83.1,3.7L83.1,3.7z M83.1,3.7"/>
	<path class="st3" d="M151,3.7c5.4,0,9.7,4.3,9.7,9.7v38.8c0,5.4-4.3,9.7-9.7,9.7c-5.4,0-9.7-4.3-9.7-9.7V13.4
		C141.3,8,145.7,3.7,151,3.7L151,3.7z M151,3.7"/>
	<path class="st3" d="M219,3.7c5.4,0,9.7,4.3,9.7,9.7v38.8c0,5.4-4.3,9.7-9.7,9.7c-5.4,0-9.7-4.3-9.7-9.7V13.4
		C209.3,8,213.6,3.7,219,3.7L219,3.7z M219,3.7"/>
	<path d="M282.1,23.1h-48.5v-9.7c0-8-6.5-14.6-14.6-14.6c-8,0-14.6,6.5-14.6,14.6v9.7h-38.8v-9.7c0-8-6.5-14.6-14.6-14.6
		c-8,0-14.6,6.5-14.6,14.6v9.7H97.7v-9.7c0-8-6.5-14.6-14.6-14.6S68.5,5.4,68.5,13.4v9.7H20c-8,0-14.6,6.5-14.6,14.6v237.8
		c0,8,6.5,14.6,14.6,14.6h262.1c8,0,14.6-6.5,14.6-14.6V37.7C296.6,29.7,290.1,23.1,282.1,23.1L282.1,23.1z M214.1,13.4
		c0-2.7,2.2-4.9,4.9-4.9c2.7,0,4.9,2.2,4.9,4.9v38.8c0,2.7-2.2,4.9-4.9,4.9c-2.7,0-4.9-2.2-4.9-4.9V13.4z M146.2,13.4
		c0-2.7,2.2-4.9,4.9-4.9c2.7,0,4.9,2.2,4.9,4.9v38.8c0,2.7-2.2,4.9-4.9,4.9c-2.7,0-4.9-2.2-4.9-4.9V13.4z M78.2,13.4
		c0-2.7,2.2-4.9,4.9-4.9c2.7,0,4.9,2.2,4.9,4.9v38.8c0,2.7-2.2,4.9-4.9,4.9c-2.7,0-4.9-2.2-4.9-4.9V13.4z M20,32.8h48.5v19.4
		c0,8,6.5,14.6,14.6,14.6s14.6-6.5,14.6-14.6V32.8h38.8v19.4c0,8,6.5,14.6,14.6,14.6c8,0,14.6-6.5,14.6-14.6V32.8h38.8v19.4
		c0,8,6.5,14.6,14.6,14.6c8,0,14.6-6.5,14.6-14.6V32.8h48.5c2.7,0,4.9,2.2,4.9,4.9v43.7H15.1V37.7C15.2,35,17.3,32.8,20,32.8
		L20,32.8z M282.1,280.4H20c-2.7,0-4.9-2.2-4.9-4.9V91.1h271.8v184.4C286.9,278.2,284.8,280.4,282.1,280.4L282.1,280.4z
		 M282.1,280.4"/>
	<path d="M272.4,105.6H126.8c-2.7,0-4.9,2.2-4.9,4.9v43.7H29.7c-2.7,0-4.9,2.2-4.9,4.9v97.1c0,2.7,2.2,4.9,4.9,4.9h145.6
		c2.7,0,4.9-2.2,4.9-4.9v-43.7h92.2c2.7,0,4.9-2.2,4.9-4.9v-97.1C277.2,107.8,275.1,105.6,272.4,105.6L272.4,105.6z M267.5,154.2
		h-87.4v-38.8h87.4V154.2z M219,202.7H83.1v-38.8H219V202.7z M131.6,115.3h38.8v38.8h-38.8V115.3z M34.6,163.9h38.8v38.8H34.6V163.9
		z M34.6,212.4h38.8v38.8H34.6V212.4z M83.1,212.4h38.8v38.8H83.1V212.4z M170.5,251.2h-38.8v-38.8h38.8V251.2z M267.5,202.7h-38.8
		v-38.8h38.8V202.7z M267.5,202.7"/>
	<rect x="44.3" y="125.1" width="14.6" height="9.7"/>
	<rect x="87.9" y="125.1" width="14.6" height="9.7"/>
	<rect x="199.6" y="231.8" width="14.6" height="9.7"/>
	<rect x="243.3" y="231.8" width="14.6" height="9.7"/>
</g>
<text transform="matrix(1 0 0 1 114.209 199.4785)" class="st4 st5">APP</text>
</svg>
