<?xml version="1.0" encoding="utf-8"?>
<!-- Generator: Adobe Illustrator 24.0.0, SVG Export Plug-In . SVG Version: 6.00 Build 0)  -->
<svg version="1.1" id="Layer_1" xmlns="http://www.w3.org/2000/svg" xmlns:xlink="http://www.w3.org/1999/xlink" x="0px" y="0px"
	 viewBox="0 0 300 300" style="enable-background:new 0 0 300 300;" xml:space="preserve">
<g>
	<path d="M193.8,101.9V90.7h-69.3v11.1c-3.3,2.4-6.4,5.1-9.2,8.1h-10c-3.2,0-5.8,2.6-5.8,5.8c0,3.2,2.6,5.8,5.8,5.8h1.7
		c-4.9,8.8-7.5,18.7-7.5,28.9c0,32.9,26.8,59.7,59.7,59.7s59.7-26.8,59.7-59.7C218.8,131.1,209.4,113.1,193.8,101.9L193.8,101.9z
		 M214.9,150.4c0,5-0.7,9.9-1.9,14.5v-4.4c0-3.4-2.3-6.5-5.6-7.4l-7.9-2.3v-2.4c2.3-1.8,3.8-4.5,3.8-7.6v-3.8c0-5.3-4.3-9.6-9.6-9.6
		v-20.7C207.1,117.2,214.9,133.3,214.9,150.4L214.9,150.4z M205.3,177.4h2.7c-0.8,1.5-1.7,2.9-2.7,4.3V177.4z M108.3,173.5
		c-0.6-1.3-1.1-2.5-1.6-3.8h104.8c-0.5,1.3-1,2.6-1.6,3.8H108.3z M112.9,181.7c-1-1.4-1.8-2.9-2.7-4.3h2.7V181.7z M112.9,117.7v-3.8
		h3.8v3.8H112.9z M120.6,113.8h32.1l2.9,1.9l-2.9,1.9h-32.1V113.8z M168.7,119.6h13.3c-0.9,7-6.4,12.5-13.3,13.3V119.6z
		 M168.7,115.8v-13.3c7,0.9,12.5,6.4,13.3,13.3H168.7z M164.9,129.3c-1.6-1.2-3.6-2-5.8-2c-1.3,0-2.5,0.3-3.7,0.7
		c-1.7-1.9-2.9-4.1-3.5-6.5h2l8.7-5.8l-8.7-5.8h-0.4c2.4-4.1,6.6-6.9,11.4-7.5V129.3z M193.8,131.2c3.2,0,5.8,2.6,5.8,5.8v3.8
		c0,3.2-2.6,5.8-5.8,5.8s-5.8-2.6-5.8-5.8v-3.8C188,133.8,190.6,131.2,193.8,131.2L193.8,131.2z M193.8,150.4c0.7,0,1.3-0.1,1.9-0.2
		v1.3l-1.9,1.9l-1.9-1.9v-1.3C192.5,150.3,193.1,150.4,193.8,150.4L193.8,150.4z M189.4,154.5l4.4,4.4l4.4-4.4l8.2,2.3
		c1.6,0.5,2.8,2,2.8,3.7v5.3h-3.8V162h-3.8v3.8h-15.4V162h-3.8v3.8h-3.8v-5.3c0-1.7,1.1-3.2,2.8-3.7L189.4,154.5z M174.5,165.8h-3.8
		V162h-3.8v3.8h-15.4V162h-3.8v3.8h-3.8v-5.3c0-1.7,1.1-3.2,2.8-3.7l8.2-2.3l4.4,4.4l4.4-4.4l8.2,2.3c1.6,0.5,2.8,2,2.8,3.7V165.8z
		 M161,151.5l-1.9,1.9l-1.9-1.9v-1.3c0.6,0.1,1.3,0.2,1.9,0.2c0.7,0,1.3-0.1,1.9-0.2V151.5z M159.1,146.6c-3.2,0-5.8-2.6-5.8-5.8
		v-3.8c0-3.2,2.6-5.8,5.8-5.8c3.2,0,5.8,2.6,5.8,5.8v3.8C164.9,144,162.3,146.6,159.1,146.6L159.1,146.6z M148,121.5
		c0.3,1.3,0.7,2.6,1.2,3.8H136v3.8h15.4v0c0.3,0.3,0.5,0.7,0.8,1c-0.8,0.8-1.5,1.8-1.9,2.9H136v3.8h13.5v3.8c0,3.1,1.5,5.9,3.8,7.6
		v2.4l-7.9,2.3c-1.5,0.4-2.7,1.3-3.7,2.4c-1-1.1-2.2-1.9-3.7-2.4l-7.9-2.2v-2.4c2.3-1.8,3.8-4.5,3.8-7.6v-3.8c0-3.9-2.4-7.3-5.8-8.8
		v-6.6H148z M130.2,136.9v3.8c0,3.2-2.6,5.8-5.8,5.8c-3.2,0-5.8-2.6-5.8-5.8v-3.8c0-3.2,2.6-5.8,5.8-5.8
		C127.7,131.2,130.2,133.8,130.2,136.9L130.2,136.9z M124.5,150.4c0.7,0,1.3-0.1,1.9-0.2v1.3l-1.9,1.9l-1.9-1.9v-1.3
		C123.2,150.3,123.8,150.4,124.5,150.4L124.5,150.4z M120.1,154.5l4.4,4.4l4.4-4.4l8.2,2.3c1.6,0.5,2.8,2,2.8,3.7v5.3H136V162h-3.8
		v3.8h-15.4V162h-3.8v3.8h-3.8v-5.3c0-1.7,1.1-3.2,2.8-3.7L120.1,154.5z M189.9,94.6v33.5c-3.4,1.5-5.8,4.9-5.8,8.8v3.8
		c0,3.1,1.5,5.9,3.8,7.6v2.4l-7.9,2.3c-1.5,0.4-2.7,1.3-3.7,2.4c-1-1.1-2.2-1.9-3.7-2.4l-7.9-2.2v-2.4c2.3-1.8,3.8-4.5,3.8-7.6v-3.8
		c0,0,0-0.1,0-0.1c9.7-1,17.3-9.2,17.3-19.2c0-10.6-8.6-19.2-19.2-19.2c-7.7,0-14.6,4.6-17.6,11.5h-20.9V94.6H189.9z M124.5,106.7
		v3.3h-3.8C121.9,108.8,123.1,107.7,124.5,106.7L124.5,106.7z M103.3,115.8c0-1.1,0.9-1.9,1.9-1.9h3.8v3.8h-3.8
		C104.2,117.7,103.3,116.8,103.3,115.8L103.3,115.8z M111.4,121.5h13.1v5.8c-5.3,0-9.6,4.3-9.6,9.6v3.8c0,3.1,1.5,5.9,3.8,7.6v2.4
		l-7.9,2.3c-3.3,0.9-5.6,4-5.6,7.4v4.4c-1.2-4.6-1.9-9.5-1.9-14.5C103.3,140.2,106.1,130.2,111.4,121.5L111.4,121.5z M159.1,206.2
		c-16.9,0-32.1-7.6-42.3-19.5v-1.7h69.3v-3.8h-69.3v-3.8h84.7v3.8h-11.5v3.8h11.5v1.7C191.2,198.7,176,206.2,159.1,206.2
		L159.1,206.2z M159.1,206.2"/>
	<rect x="132.2" y="98.4" width="3.8" height="3.8"/>
	<rect x="139.9" y="98.4" width="3.8" height="3.8"/>
	<rect x="147.6" y="98.4" width="3.8" height="3.8"/>
</g>
</svg>
