<svg id="Layer_1" data-name="Layer 1" xmlns="http://www.w3.org/2000/svg" viewBox="0 0 300 300"><defs><style>.cls-1{fill:#2b2b2b;}</style></defs><title>Artboard 2</title><path class="cls-1" d="M196.66,162.25V108.54c0-5.78-4.18-10.47-9.31-10.47H173.4V90.21a2.34,2.34,0,1,0-4.65,0v7.86H126.88V90.21a2.34,2.34,0,1,0-4.65,0v7.86h-18.6c-5.13,0-9.31,4.69-9.31,10.47V192.3c0,5.77,4.18,10.47,9.31,10.47h57c4.69,6.39,11.79,10.47,19.72,10.47,14.1,0,25.58-12.92,25.58-28.8A30.3,30.3,0,0,0,196.66,162.25Zm-93-58.95h18.6v5.24c-2.56,0-4.65,2.35-4.65,5.23s2.09,5.24,4.65,5.24,4.65-2.35,4.65-5.24V103.3h41.87v5.24c-2.57,0-4.65,2.35-4.65,5.23s2.08,5.24,4.65,5.24,4.65-2.35,4.65-5.24V103.3h13.95c2.57,0,4.65,2.35,4.65,5.24v15.7H99v-15.7C99,105.65,101.06,103.3,103.63,103.3Zm0,94.23c-2.57,0-4.65-2.35-4.65-5.23V129.48h93v29.35a23.11,23.11,0,0,0-11.62-3.18c-14.11,0-25.59,12.92-25.59,28.79a31.38,31.38,0,0,0,2.83,13.09ZM180.38,208c-11.55,0-20.94-10.57-20.94-23.56s9.39-23.55,20.94-23.55,20.93,10.56,20.93,23.55S191.92,208,180.38,208Z"/><path class="cls-1" d="M190.36,174.74l-14.64,16.47-5.33-6a2.15,2.15,0,0,0-3.29,0,2.85,2.85,0,0,0,0,3.7l7,7.85a2.14,2.14,0,0,0,3.29,0l16.28-18.32a2.85,2.85,0,0,0,0-3.7A2.15,2.15,0,0,0,190.36,174.74Z"/></svg>