<svg id="Layer_1" data-name="Layer 1" xmlns="http://www.w3.org/2000/svg" viewBox="0 0 300 300"><defs><style>.cls-1{fill:#2b2b2b;}</style></defs><title>Artboard 4</title><path class="cls-1" d="M150.91,119.28l2.7-2.7h5.68a1.59,1.59,0,0,1,1.59,1.58v4.76a1.59,1.59,0,0,1-1.59,1.58H131.56A1.59,1.59,0,0,0,130,126l-1.82,50.72,3.17.11,1.76-49.19h26.2a4.76,4.76,0,0,0,4.76-4.75v-4.76a4.76,4.76,0,0,0-4.76-4.75H153a1.62,1.62,0,0,0-1.12.46l-2.7,2.71H129.3a7.59,7.59,0,0,0,1.47-4.5v-6.85a7.69,7.69,0,0,0-7.67-7.67h-3.69a7.68,7.68,0,0,0-7.66,7.67v6.85a7.65,7.65,0,0,0,1.46,4.5h-3a7.93,7.93,0,0,0-7.92,7.92v26.95A4.75,4.75,0,0,0,107,156.2h3.45l1.31,36.51,3.17-.11-1.32-36.78a4.73,4.73,0,0,0,2.9-4.37v-3.17a1.56,1.56,0,0,0-.46-1.12l-2.71-2.71V129.26h-3.17v15.85a1.58,1.58,0,0,0,.47,1.12l2.7,2.7v2.52a1.58,1.58,0,0,1-1.58,1.58H107a1.58,1.58,0,0,1-1.58-1.58V124.5a4.75,4.75,0,0,1,4.75-4.75h39.63a1.58,1.58,0,0,0,1.12-.47Zm-31.5-2.7a4.5,4.5,0,0,1-4.49-4.5v-6.85a4.5,4.5,0,0,1,4.49-4.5h3.69a4.51,4.51,0,0,1,4.5,4.5v6.85a4.51,4.51,0,0,1-4.5,4.5Zm0,0"/><rect class="cls-1" x="119.67" y="154.62" width="3.17" height="38.04"/><path class="cls-1" d="M156.12,178.39h-3a7.65,7.65,0,0,0,1.46-4.5V167a7.68,7.68,0,0,0-7.67-7.67h-3.68a7.69,7.69,0,0,0-7.67,7.67v6.85a7.65,7.65,0,0,0,1.46,4.5h-3a7.93,7.93,0,0,0-7.93,7.92v6.34h3.17v-6.34a4.76,4.76,0,0,1,4.76-4.75h22.18a4.76,4.76,0,0,1,4.76,4.75v6.34h3.17v-6.34a7.93,7.93,0,0,0-7.93-7.92Zm-12.93,0a4.5,4.5,0,0,1-4.5-4.5V167a4.51,4.51,0,0,1,4.5-4.5h3.68a4.5,4.5,0,0,1,4.5,4.5v6.85a4.49,4.49,0,0,1-4.5,4.5Zm0,0"/><path class="cls-1" d="M187.82,178.39h-3a7.59,7.59,0,0,0,1.47-4.5V167a7.69,7.69,0,0,0-7.67-7.67h-3.69a7.68,7.68,0,0,0-7.66,7.67v6.85a7.65,7.65,0,0,0,1.46,4.5h-3.05v3.17h22.19a4.76,4.76,0,0,1,4.76,4.75v6.34h3.17v-6.34a7.93,7.93,0,0,0-7.93-7.92Zm-12.94,0a4.49,4.49,0,0,1-4.49-4.5V167a4.5,4.5,0,0,1,4.49-4.5h3.69a4.51,4.51,0,0,1,4.5,4.5v6.85a4.51,4.51,0,0,1-4.5,4.5Zm0,0"/><path class="cls-1" d="M197.33,96H137.11a1.59,1.59,0,0,0-1.59,1.58v6.34a1.59,1.59,0,0,0,1.59,1.58h1.58v7.93h3.17v-7.93h50.72v42.8H141.86V130.84h-3.17v19a1.59,1.59,0,0,0,1.59,1.59h53.88a1.59,1.59,0,0,0,1.59-1.59V105.48h1.58a1.59,1.59,0,0,0,1.59-1.58V97.56A1.59,1.59,0,0,0,197.33,96Zm-1.58,6.34H138.69V99.15h57.06Zm0,0"/><path class="cls-1" d="M189.41,119.75a11.11,11.11,0,0,0-11.1-11.1,1.59,1.59,0,0,0-1.58,1.59v7.92H168.8a1.59,1.59,0,0,0-1.58,1.59,11.1,11.1,0,0,0,22.19,0Zm-18.86,1.58h7.76a1.59,1.59,0,0,0,1.59-1.58V112a7.93,7.93,0,1,1-9.35,9.35Zm0,0"/><rect class="cls-1" x="149.79" y="134.01" width="3.17" height="3.17"/><rect class="cls-1" x="156.12" y="134.01" width="31.7" height="3.17"/><rect class="cls-1" x="146.62" y="140.35" width="34.87" height="3.17"/></svg>