<?xml version="1.0" encoding="utf-8"?>
<!-- Generator: Adobe Illustrator 24.0.0, SVG Export Plug-In . SVG Version: 6.00 Build 0)  -->
<svg version="1.1" id="Layer_1" xmlns="http://www.w3.org/2000/svg" xmlns:xlink="http://www.w3.org/1999/xlink" x="0px" y="0px"
	 viewBox="0 0 300 300" style="enable-background:new 0 0 300 300;" xml:space="preserve">
<style type="text/css">
	.st0{fill:#E6E7E8;}
	.st1{fill:#FFFFFF;}
	.st2{fill:#ABE1FA;}
	.st3{fill:#DAEAC1;}
	.st4{fill:#D3B5D7;}
	.st5{fill:#FFE6B9;}
	.st6{fill:#FBBEA7;}
	.st7{fill:#E6D9C6;}
	.st8{fill:#D7ECDD;}
	.st9{fill:#F8C1D9;}
	.st10{fill:#FCCCAD;}
	.st11{fill:#C5E8F0;}
	.st12{fill:#C7C4E2;}
	.st13{fill:#C7E3C0;}
	.st14{opacity:0.1;enable-background:new    ;}
	.st15{font-family:'MyriadPro-Regular';}
	.st16{font-size:4.6836px;}
	.st17{font-family:'MyriadPro-Bold';}
	.st18{font-size:4.6834px;}
	.st19{font-size:4.6835px;}
	.st20{font-size:4.6837px;}
	.st21{font-size:4.6833px;}
	.st22{font-size:4.6838px;}
	.st23{font-size:5.0181px;}
	.st24{fill:#808285;}
	.st25{font-size:31.4637px;}
</style>
<title>Artboard 2</title>
<path class="st0" d="M300,149.2c0,82.2-66.7,148.9-148.9,148.9h0C68.9,298,2.3,231.4,2.3,149.2v0C2.3,67,68.9,0.3,151.1,0.3
	S300,67,300,149.2z"/>
<path class="st1" d="M291.6,149.2c0,77.6-62.9,140.5-140.5,140.5h0c-77.6,0-140.5-62.9-140.5-140.5v0C10.6,71.6,73.5,8.7,151.1,8.7
	S291.6,71.6,291.6,149.2z"/>
<path class="st2" d="M291.6,149.2c0,77.6-62.9,140.5-140.5,140.5h0c-77.6,0-140.5-62.9-140.5-140.5v0C10.6,71.6,73.5,8.7,151.1,8.7
	S291.6,71.6,291.6,149.2z"/>
<path class="st3" d="M283.3,149.2c0,73-59.2,132.1-132.1,132.1l0,0c-73,0-132.1-59.2-132.1-132.1S78.1,17,151.1,17
	S283.3,76.2,283.3,149.2z"/>
<path class="st4" d="M274.9,149.2c0,68.4-55.4,123.8-123.8,123.8l0,0c-68.4,0-123.8-55.4-123.8-123.8S82.8,25.4,151.1,25.4
	S274.9,80.8,274.9,149.2L274.9,149.2z"/>
<path class="st5" d="M266.5,149.2c0,63.7-51.7,115.4-115.4,115.4l0,0c-63.7,0-115.4-51.7-115.4-115.4S87.4,33.8,151.1,33.8
	S266.5,85.4,266.5,149.2L266.5,149.2z"/>
<path class="st6" d="M258.2,149.2c0,59.1-47.9,107.1-107.1,107.1S44.1,208.3,44.1,149.2S92,42.1,151.1,42.1S258.2,90,258.2,149.2z"
	/>
<path class="st7" d="M249.8,149.2c0,54.5-44.2,98.7-98.7,98.7l0,0c-54.5,0-98.7-44.2-98.7-98.7l0,0c0-54.5,44.2-98.7,98.7-98.7
	S249.8,94.7,249.8,149.2z"/>
<path class="st8" d="M241.5,149.2c0,49.9-40.4,90.3-90.3,90.3s-90.3-40.4-90.3-90.3s40.4-90.3,90.3-90.3S241.5,99.3,241.5,149.2z"/>
<path class="st9" d="M233.1,149.2c0,45.3-36.7,82-82,82s-82-36.7-82-82s36.7-82,82-82S233.1,103.9,233.1,149.2z"/>
<path class="st10" d="M224.7,149.2c0,40.6-33,73.6-73.6,73.6s-73.6-33-73.6-73.6s33-73.6,73.6-73.6S224.7,108.5,224.7,149.2z"/>
<path class="st11" d="M216.4,149.2c0,36-29.2,65.2-65.2,65.2s-65.2-29.2-65.2-65.2s29.2-65.2,65.2-65.2S216.4,113.1,216.4,149.2
	L216.4,149.2z"/>
<path class="st12" d="M208,149.2c0,31.4-25.5,56.9-56.9,56.9s-56.9-25.5-56.9-56.9s25.5-56.9,56.9-56.9S208,117.8,208,149.2z"/>
<path class="st13" d="M199.6,149.2c0,26.8-21.7,48.5-48.5,48.5l0,0c-26.8,0-48.5-21.7-48.5-48.5l0,0c0-26.8,21.7-48.5,48.5-48.5l0,0
	C177.9,100.7,199.6,122.4,199.6,149.2L199.6,149.2z"/>
<path class="st14" d="M114.1,139.6L5,120.4c-0.4,1.9-0.7,3.9-1,5.8l109.1,19.2L114.1,139.6z M276.2,68.4c-1.1-1.7-2.2-3.3-3.3-4.9
	l-91.8,61.9l3.3,4.9L276.2,68.4z M45.6,254.2c1.4,1.4,2.8,2.8,4.3,4.1l76.9-79.6l-4.3-4.1L45.6,254.2z M148.2,0.3V111h5.9V0.3
	c-1,0-2,0-3,0C150.1,0.3,149.2,0.3,148.2,0.3z M187.6,160.7l-2.2,5.5l102.7,41.5c0.8-1.8,1.5-3.6,2.2-5.5L187.6,160.7z M156.2,187.1
	l23,108.3c1.9-0.4,3.9-0.8,5.8-1.2l-23-108.3L156.2,187.1z"/>
<path class="st1" d="M191.3,149.2c0,22.2-18,40.1-40.1,40.1l0,0c-22.2,0-40.1-18-40.1-40.1l0,0c0-22.2,18-40.1,40.1-40.1
	S191.3,127,191.3,149.2z"/>
<text transform="matrix(1 0 0 1 148.7271 98.3135)" class="st15 st16">01</text>
<text transform="matrix(1 0 0 1 149.9751 6.1943)" class="st17 st16">S</text>
<text transform="matrix(0.5592 0.829 -0.829 0.5592 268.7275 68.2596)" class="st17 st18">S</text>
<text transform="matrix(-0.3746 0.9272 -0.9272 -0.3746 283.6887 201.4135)" class="st17 st16">S</text>
<text transform="matrix(-0.7193 -0.6947 0.6947 -0.7193 52.5865 252.2656)" class="st17 st16">S</text>
<text transform="matrix(0.1736 -0.9848 0.9848 0.1736 10.2762 125.1233)" class="st17 st19">S</text>
<text transform="matrix(1 0 0 1 148.7271 31.4053)" class="st15 st16">01</text>
<text transform="matrix(1 0 0 1 148.7271 23.042)" class="st15 st16">01</text>
<text transform="matrix(0.9903 0.1392 -0.1392 0.9903 155.8325 98.4705)" class="st15 st20">02</text>
<text transform="matrix(0.9903 0.1392 -0.1392 0.9903 161.6533 57.0602)" class="st15 st20">01</text>
<text transform="matrix(0.9903 0.1392 -0.1392 0.9903 165.1448 32.2135)" class="st15 st20">02</text>
<text transform="matrix(0.9903 0.1392 -0.1392 0.9903 166.3091 23.9307)" class="st15 st20">02</text>
<text transform="matrix(0.9613 0.2756 -0.2756 0.9613 160.5819 107.6795)" class="st15 st20">01</text>
<text transform="matrix(0.9613 0.2756 -0.2756 0.9613 162.8313 99.6246)" class="st15 st20">03</text>
<text transform="matrix(0.9613 0.2756 -0.2756 0.9613 167.4413 83.5449)" class="st15 st20">01</text>
<text transform="matrix(0.9613 0.2756 -0.2756 0.9613 174.3569 59.4265)" class="st15 st20">02</text>
<text transform="matrix(0.9613 0.2756 -0.2756 0.9613 181.2737 35.3078)" class="st15 st20">03</text>
<text transform="matrix(0.9613 0.2756 -0.2756 0.9613 183.5784 27.2689)" class="st15 st20">03</text>
<text transform="matrix(0.9136 0.4067 -0.4067 0.9136 166.2702 109.407)" class="st15 st20">02</text>
<text transform="matrix(0.9136 0.4067 -0.4067 0.9136 169.6166 101.741)" class="st15 st20">04</text>
<text transform="matrix(0.9136 0.4067 -0.4067 0.9136 176.4225 86.462)" class="st15 st20">02</text>
<text transform="matrix(0.9136 0.4067 -0.4067 0.9136 183.2253 71.1802)" class="st15 st20">01</text>
<text transform="matrix(0.9136 0.4067 -0.4067 0.9136 186.6266 63.5398)" class="st15 st20">03</text>
<text transform="matrix(0.9136 0.4067 -0.4067 0.9136 193.4292 48.2585)" class="st15 st20">01</text>
<text transform="matrix(0.9136 0.4067 -0.4067 0.9136 196.8306 40.6176)" class="st15 st20">04</text>
<text transform="matrix(0.9136 0.4067 -0.4067 0.9136 200.2337 32.978)" class="st15 st20">04</text>
<text transform="matrix(0.8481 0.5299 -0.5299 0.8481 171.6567 111.893)" class="st15 st20">03</text>
<text transform="matrix(0.8481 0.5299 -0.5299 0.8481 176.0378 104.7688)" class="st15 st20">05</text>
<text transform="matrix(0.8481 0.5299 -0.5299 0.8481 180.4694 97.6759)" class="st15 st20">01</text>
<text transform="matrix(0.8481 0.5299 -0.5299 0.8481 184.901 90.5833)" class="st15 st20">03</text>
<text transform="matrix(0.8481 0.5299 -0.5299 0.8481 193.7671 76.3987)" class="st15 st20">02</text>
<text transform="matrix(0.8481 0.5299 -0.5299 0.8481 198.1986 69.306)" class="st15 st20">04</text>
<text transform="matrix(0.8481 0.5299 -0.5299 0.8481 207.0619 55.1205)" class="st15 st20">02</text>
<text transform="matrix(0.8481 0.5299 -0.5299 0.8481 211.4937 48.0274)" class="st15 st20">05</text>
<text transform="matrix(0.8481 0.5299 -0.5299 0.8481 215.927 40.9356)" class="st15 st20">05</text>
<text transform="matrix(0.8481 0.5299 -0.5299 0.8481 220.3586 33.8429)" class="st15 st20">01</text>
<text transform="matrix(0.766 0.6428 -0.6428 0.766 176.6333 115.1086)" class="st15 st18">04</text>
<text transform="matrix(0.766 0.6428 -0.6428 0.766 181.9624 108.6625)" class="st15 st18">06</text>
<text transform="matrix(0.766 0.6428 -0.6428 0.766 187.3386 102.2559)" class="st15 st18">02</text>
<text transform="matrix(0.766 0.6428 -0.6428 0.766 192.7147 95.8493)" class="st15 st18">04</text>
<text transform="matrix(0.766 0.6428 -0.6428 0.766 203.4671 83.0361)" class="st15 st18">03</text>
<text transform="matrix(0.766 0.6428 -0.6428 0.766 208.8434 76.6294)" class="st15 st18">05</text>
<text transform="matrix(0.766 0.6428 -0.6428 0.766 214.2179 70.2218)" class="st15 st18">01</text>
<text transform="matrix(0.766 0.6428 -0.6428 0.766 219.5943 63.8149)" class="st15 st18">03</text>
<text transform="matrix(0.766 0.6428 -0.6428 0.766 224.9704 57.4084)" class="st15 st18">06</text>
<text transform="matrix(0.766 0.6428 -0.6428 0.766 230.3467 51.0017)" class="st15 st18">06</text>
<text transform="matrix(0.766 0.6428 -0.6428 0.766 235.7229 44.5951)" class="st15 st18">02</text>
<text transform="matrix(0.6691 0.7431 -0.7431 0.6691 181.1381 118.983)" class="st15 st21">05</text>
<text transform="matrix(0.6691 0.7431 -0.7431 0.6691 187.3141 113.3432)" class="st15 st21">07</text>
<text transform="matrix(0.6691 0.7431 -0.7431 0.6691 193.5295 107.7468)" class="st15 st21">03</text>
<text transform="matrix(0.6691 0.7431 -0.7431 0.6691 199.7446 102.1505)" class="st15 st21">05</text>
<text transform="matrix(0.6691 0.7431 -0.7431 0.6691 205.9599 96.5542)" class="st15 st21">01</text>
<text transform="matrix(0.6691 0.7431 -0.7431 0.6691 212.1752 90.9578)" class="st15 st21">04</text>
<text transform="matrix(0.6691 0.7431 -0.7431 0.6691 218.3903 85.3617)" class="st15 st21">06</text>
<text transform="matrix(0.6691 0.7431 -0.7431 0.6691 224.6068 79.7668)" class="st15 st21">02</text>
<text transform="matrix(0.6691 0.7431 -0.7431 0.6691 230.8223 74.1703)" class="st15 st21">04</text>
<text transform="matrix(0.6691 0.7431 -0.7431 0.6691 237.0373 68.5742)" class="st15 st21">07</text>
<text transform="matrix(0.6691 0.7431 -0.7431 0.6691 243.2527 62.9778)" class="st15 st21">07</text>
<text transform="matrix(0.6691 0.7431 -0.7431 0.6691 249.4679 57.3814)" class="st15 st21">03</text>
<text transform="matrix(0.5592 0.829 -0.829 0.5592 185.034 123.4626)" class="st15 st18">06</text>
<text transform="matrix(0.5592 0.829 -0.829 0.5592 191.9348 118.737)" class="st15 st18">08</text>
<text transform="matrix(0.5592 0.829 -0.829 0.5592 198.8685 114.0599)" class="st15 st18">04</text>
<text transform="matrix(0.5592 0.829 -0.829 0.5592 205.8017 109.3831)" class="st15 st18">06</text>
<text transform="matrix(0.5592 0.829 -0.829 0.5592 212.7361 104.7056)" class="st15 st18">02</text>
<text transform="matrix(0.5592 0.829 -0.829 0.5592 219.6692 100.0288)" class="st15 st18">05</text>
<text transform="matrix(0.5592 0.829 -0.829 0.5592 226.603 95.3517)" class="st15 st18">07</text>
<text transform="matrix(0.5592 0.829 -0.829 0.5592 233.5372 90.6766)" class="st15 st18">03</text>
<text transform="matrix(0.5592 0.829 -0.829 0.5592 240.4703 85.9998)" class="st15 st18">05</text>
<text transform="matrix(0.5592 0.829 -0.829 0.5592 247.4041 81.3227)" class="st15 st18">08</text>
<text transform="matrix(0.5592 0.829 -0.829 0.5592 254.3378 76.6455)" class="st15 st18">08</text>
<text transform="matrix(0.5592 0.829 -0.829 0.5592 261.2714 71.9685)" class="st15 st18">04</text>
<text transform="matrix(0.4384 0.8988 -0.8988 0.4384 188.2922 128.4253)" class="st15 st16">07</text>
<text transform="matrix(0.4384 0.8988 -0.8988 0.4384 195.7851 124.7075)" class="st15 st16">09</text>
<text transform="matrix(0.4384 0.8988 -0.8988 0.4384 203.3018 121.0411)" class="st15 st16">05</text>
<text transform="matrix(0.4384 0.8988 -0.8988 0.4384 210.8191 117.3745)" class="st15 st16">07</text>
<text transform="matrix(0.4384 0.8988 -0.8988 0.4384 218.3363 113.7079)" class="st15 st16">03</text>
<text transform="matrix(0.4384 0.8988 -0.8988 0.4384 225.8535 110.0413)" class="st15 st16">06</text>
<text transform="matrix(0.4384 0.8988 -0.8988 0.4384 233.3699 106.3751)" class="st15 st16">08</text>
<text transform="matrix(0.4384 0.8988 -0.8988 0.4384 240.8871 102.7085)" class="st15 st16">04</text>
<text transform="matrix(0.4384 0.8988 -0.8988 0.4384 248.4039 99.0421)" class="st15 st16">06</text>
<text transform="matrix(0.4384 0.8988 -0.8988 0.4384 255.9215 95.3753)" class="st15 st16">09</text>
<text transform="matrix(0.4384 0.8988 -0.8988 0.4384 263.4379 91.7091)" class="st15 st16">09</text>
<text transform="matrix(0.4384 0.8988 -0.8988 0.4384 270.9547 88.0427)" class="st15 st16">05</text>
<text transform="matrix(0.309 0.9511 -0.9511 0.309 190.8115 133.812)" class="st15 st20">08</text>
<text transform="matrix(0.309 0.9511 -0.9511 0.309 198.7464 131.1735)" class="st15 st20">10</text>
<text transform="matrix(0.309 0.9511 -0.9511 0.309 206.7013 128.589)" class="st15 st20">06</text>
<text transform="matrix(0.309 0.9511 -0.9511 0.309 214.6553 126.0049)" class="st15 st20">08</text>
<text transform="matrix(0.309 0.9511 -0.9511 0.309 222.6103 123.4204)" class="st15 st20">04</text>
<text transform="matrix(0.309 0.9511 -0.9511 0.309 230.5633 120.8345)" class="st15 st20">07</text>
<text transform="matrix(0.309 0.9511 -0.9511 0.309 238.5187 118.2499)" class="st15 st20">09</text>
<text transform="matrix(0.309 0.9511 -0.9511 0.309 246.4723 115.6659)" class="st15 st20">05</text>
<text transform="matrix(0.309 0.9511 -0.9511 0.309 254.4263 113.0818)" class="st15 st20">07</text>
<text transform="matrix(0.309 0.9511 -0.9511 0.309 262.3803 110.4976)" class="st15 st20">10</text>
<text transform="matrix(0.309 0.9511 -0.9511 0.309 270.3353 107.9131)" class="st15 st20">10</text>
<text transform="matrix(0.309 0.9511 -0.9511 0.309 278.2888 105.3291)" class="st15 st20">06</text>
<text transform="matrix(0.1736 0.9848 -0.9848 0.1736 192.5617 139.4835)" class="st15 st19">09</text>
<text transform="matrix(0.1736 0.9848 -0.9848 0.1736 200.789 137.9747)" class="st15 st19">11</text>
<text transform="matrix(0.1736 0.9848 -0.9848 0.1736 209.0253 136.5228)" class="st15 st19">07</text>
<text transform="matrix(0.1736 0.9848 -0.9848 0.1736 217.2624 135.0698)" class="st15 st19">09</text>
<text transform="matrix(0.1736 0.9848 -0.9848 0.1736 225.4986 133.6179)" class="st15 st19">05</text>
<text transform="matrix(0.1736 0.9848 -0.9848 0.1736 233.7359 132.1658)" class="st15 st19">08</text>
<text transform="matrix(0.1736 0.9848 -0.9848 0.1736 241.9722 130.7139)" class="st15 st19">10</text>
<text transform="matrix(0.1736 0.9848 -0.9848 0.1736 250.2075 129.2592)" class="st15 st19">06</text>
<text transform="matrix(0.1736 0.9848 -0.9848 0.1736 258.4438 127.8074)" class="st15 st19">08</text>
<text transform="matrix(0.1736 0.9848 -0.9848 0.1736 266.6796 126.3555)" class="st15 st19">11</text>
<text transform="matrix(0.1736 0.9848 -0.9848 0.1736 274.9173 124.9034)" class="st15 st19">11</text>
<text transform="matrix(0.1736 0.9848 -0.9848 0.1736 283.1531 123.4516)" class="st15 st19">07</text>
<text transform="matrix(3.489968e-02 0.9994 -0.9994 3.489968e-02 193.5091 145.3381)" class="st15 st16">10</text>
<text transform="matrix(3.489968e-02 0.9994 -0.9994 3.489968e-02 201.8643 144.9867)" class="st15 st16">12</text>
<text transform="matrix(3.489968e-02 0.9994 -0.9994 3.489968e-02 210.2224 144.6948)" class="st15 st16">08</text>
<text transform="matrix(3.489968e-02 0.9994 -0.9994 3.489968e-02 218.5816 144.4029)" class="st15 st16">10</text>
<text transform="matrix(3.489968e-02 0.9994 -0.9994 3.489968e-02 226.9408 144.111)" class="st15 st16">06</text>
<text transform="matrix(3.489968e-02 0.9994 -0.9994 3.489968e-02 235.299 143.8191)" class="st15 st16">09</text>
<text transform="matrix(3.489968e-02 0.9994 -0.9994 3.489968e-02 243.6571 143.5273)" class="st15 st16">11</text>
<text transform="matrix(3.489968e-02 0.9994 -0.9994 3.489968e-02 252.0153 143.2354)" class="st15 st16">07</text>
<text transform="matrix(3.489968e-02 0.9994 -0.9994 3.489968e-02 260.3745 142.9435)" class="st15 st16">09</text>
<text transform="matrix(3.489968e-02 0.9994 -0.9994 3.489968e-02 268.7327 142.6516)" class="st15 st16">12</text>
<text transform="matrix(3.489968e-02 0.9994 -0.9994 3.489968e-02 277.0899 142.3598)" class="st15 st16">12</text>
<text transform="matrix(3.489968e-02 0.9994 -0.9994 3.489968e-02 285.4481 142.0679)" class="st15 st16">08</text>
<text transform="matrix(-0.1045 0.9945 -0.9945 -0.1045 193.6274 151.2685)" class="st15 st18">11</text>
<text transform="matrix(-0.1045 0.9945 -0.9945 -0.1045 201.9499 152.0851)" class="st15 st18">13</text>
<text transform="matrix(-0.1045 0.9945 -0.9945 -0.1045 210.2664 152.959)" class="st15 st18">09</text>
<text transform="matrix(-0.1045 0.9945 -0.9945 -0.1045 218.5849 153.8331)" class="st15 st18">11</text>
<text transform="matrix(-0.1045 0.9945 -0.9945 -0.1045 226.9032 154.7081)" class="st15 st18">07</text>
<text transform="matrix(-0.1045 0.9945 -0.9945 -0.1045 235.2207 155.5821)" class="st15 st18">10</text>
<text transform="matrix(-0.1045 0.9945 -0.9945 -0.1045 243.5382 156.4561)" class="st15 st18">12</text>
<text transform="matrix(-0.1045 0.9945 -0.9945 -0.1045 251.8567 157.3302)" class="st15 st18">08</text>
<text transform="matrix(-0.1045 0.9945 -0.9945 -0.1045 260.1742 158.2042)" class="st15 st18">10</text>
<text transform="matrix(-0.1045 0.9945 -0.9945 -0.1045 268.4925 159.0792)" class="st15 st18">13</text>
<text transform="matrix(-0.1045 0.9945 -0.9945 -0.1045 276.8091 159.9531)" class="st15 st18">13</text>
<text transform="matrix(-0.1045 0.9945 -0.9945 -0.1045 285.1285 160.8273)" class="st15 st18">09</text>
<text transform="matrix(-0.2419 0.9703 -0.9703 -0.2419 192.9167 157.1758)" class="st15 st16">12</text>
<text transform="matrix(-0.2419 0.9703 -0.9703 -0.2419 201.0456 159.143)" class="st15 st16">14</text>
<text transform="matrix(-0.2419 0.9703 -0.9703 -0.2419 209.1624 161.1666)" class="st15 st16">10</text>
<text transform="matrix(-0.2419 0.9703 -0.9703 -0.2419 217.2744 163.1889)" class="st15 st16">12</text>
<text transform="matrix(-0.2419 0.9703 -0.9703 -0.2419 225.3912 165.2125)" class="st15 st16">08</text>
<text transform="matrix(-0.2419 0.9703 -0.9703 -0.2419 233.5061 167.2356)" class="st15 st16">11</text>
<text transform="matrix(-0.2419 0.9703 -0.9703 -0.2419 241.621 169.2587)" class="st15 st16">13</text>
<text transform="matrix(-0.2419 0.9703 -0.9703 -0.2419 249.7357 171.2827)" class="st15 st16">09</text>
<text transform="matrix(-0.2419 0.9703 -0.9703 -0.2419 257.8506 173.3058)" class="st15 st16">11</text>
<text transform="matrix(-0.2419 0.9703 -0.9703 -0.2419 265.9674 175.3293)" class="st15 st16">14</text>
<text transform="matrix(-0.2419 0.9703 -0.9703 -0.2419 274.0823 177.3524)" class="st15 st16">14</text>
<text transform="matrix(-0.2419 0.9703 -0.9703 -0.2419 282.1972 179.3755)" class="st15 st16">10</text>
<text transform="matrix(-0.3746 0.9272 -0.9272 -0.3746 191.3966 162.8952)" class="st15 st16">13</text>
<text transform="matrix(-0.3746 0.9272 -0.9272 -0.3746 199.1731 165.9732)" class="st15 st16">15</text>
<text transform="matrix(-0.3746 0.9272 -0.9272 -0.3746 206.9288 169.1077)" class="st15 st16">11</text>
<text transform="matrix(-0.3746 0.9272 -0.9272 -0.3746 214.6814 172.2398)" class="st15 st16">13</text>
<text transform="matrix(-0.3746 0.9272 -0.9272 -0.3746 222.4375 175.3734)" class="st15 st16">09</text>
<text transform="matrix(-0.3746 0.9272 -0.9272 -0.3746 230.1919 178.5063)" class="st15 st16">12</text>
<text transform="matrix(-0.3746 0.9272 -0.9272 -0.3746 237.948 181.6398)" class="st15 st16">14</text>
<text transform="matrix(-0.3746 0.9272 -0.9272 -0.3746 245.7005 184.7719)" class="st15 st16">10</text>
<text transform="matrix(-0.3746 0.9272 -0.9272 -0.3746 253.4567 187.9055)" class="st15 st16">12</text>
<text transform="matrix(-0.3746 0.9272 -0.9272 -0.3746 261.211 191.0384)" class="st15 st16">15</text>
<text transform="matrix(-0.3746 0.9272 -0.9272 -0.3746 268.9644 194.1709)" class="st15 st16">15</text>
<text transform="matrix(-0.3746 0.9272 -0.9272 -0.3746 276.7188 197.3037)" class="st15 st16">11</text>
<text transform="matrix(-0.5 0.866 -0.866 -0.5 189.0891 168.3847)" class="st15 st19">14</text>
<text transform="matrix(-0.5 0.866 -0.866 -0.5 196.361 172.5159)" class="st15 st19">16</text>
<text transform="matrix(-0.5 0.866 -0.866 -0.5 203.6055 176.6986)" class="st15 st19">12</text>
<text transform="matrix(-0.5 0.866 -0.866 -0.5 210.8459 180.8784)" class="st15 st19">14</text>
<text transform="matrix(-0.5 0.866 -0.866 -0.5 218.0912 185.0616)" class="st15 st19">10</text>
<text transform="matrix(-0.5 0.866 -0.866 -0.5 225.334 189.2433)" class="st15 st19">13</text>
<text transform="matrix(-0.5 0.866 -0.866 -0.5 232.5759 193.4246)" class="st15 st19">15</text>
<text transform="matrix(-0.5 0.866 -0.866 -0.5 239.8187 197.6063)" class="st15 st19">11</text>
<text transform="matrix(-0.5 0.866 -0.866 -0.5 247.0631 201.789)" class="st15 st19">13</text>
<text transform="matrix(-0.5 0.866 -0.866 -0.5 254.3059 205.9708)" class="st15 st19">16</text>
<text transform="matrix(-0.5 0.866 -0.866 -0.5 261.5469 210.1515)" class="st15 st19">16</text>
<text transform="matrix(-0.5 0.866 -0.866 -0.5 268.7917 214.3336)" class="st15 st19">12</text>
<text transform="matrix(-0.6157 0.788 -0.788 -0.6157 186.0555 173.4743)" class="st15 st16">15</text>
<text transform="matrix(-0.6157 0.788 -0.788 -0.6157 192.6817 178.5774)" class="st15 st16">17</text>
<text transform="matrix(-0.6157 0.788 -0.788 -0.6157 199.2723 183.7261)" class="st15 st16">13</text>
<text transform="matrix(-0.6157 0.788 -0.788 -0.6157 205.8617 188.8747)" class="st15 st16">15</text>
<text transform="matrix(-0.6157 0.788 -0.788 -0.6157 212.4545 194.0252)" class="st15 st16">11</text>
<text transform="matrix(-0.6157 0.788 -0.788 -0.6157 219.0424 199.1726)" class="st15 st16">14</text>
<text transform="matrix(-0.6157 0.788 -0.788 -0.6157 225.6343 204.3227)" class="st15 st16">16</text>
<text transform="matrix(-0.6157 0.788 -0.788 -0.6157 232.2245 209.4719)" class="st15 st16">12</text>
<text transform="matrix(-0.6157 0.788 -0.788 -0.6157 238.8152 214.6204)" class="st15 st16">14</text>
<text transform="matrix(-0.6157 0.788 -0.788 -0.6157 245.4055 219.7694)" class="st15 st16">17</text>
<text transform="matrix(-0.6157 0.788 -0.788 -0.6157 251.9956 224.9186)" class="st15 st16">17</text>
<text transform="matrix(-0.6157 0.788 -0.788 -0.6157 258.5877 230.0685)" class="st15 st16">13</text>
<text transform="matrix(-0.7193 0.6947 -0.6947 -0.7193 182.3236 178.0979)" class="st15 st16">16</text>
<text transform="matrix(-0.7193 0.6947 -0.6947 -0.7193 188.1765 184.0748)" class="st15 st16">18</text>
<text transform="matrix(-0.7193 0.6947 -0.6947 -0.7193 193.9864 190.0906)" class="st15 st16">14</text>
<text transform="matrix(-0.7193 0.6947 -0.6947 -0.7193 199.7956 196.107)" class="st15 st16">16</text>
<text transform="matrix(-0.7193 0.6947 -0.6947 -0.7193 205.6055 202.1228)" class="st15 st16">12</text>
<text transform="matrix(-0.7193 0.6947 -0.6947 -0.7193 211.4165 208.1403)" class="st15 st16">15</text>
<text transform="matrix(-0.7193 0.6947 -0.6947 -0.7193 217.2261 214.1564)" class="st15 st16">17</text>
<text transform="matrix(-0.7193 0.6947 -0.6947 -0.7193 223.0336 220.1704)" class="st15 st16">13</text>
<text transform="matrix(-0.7193 0.6947 -0.6947 -0.7193 228.8448 226.1876)" class="st15 st16">15</text>
<text transform="matrix(-0.7193 0.6947 -0.6947 -0.7193 234.6559 232.2049)" class="st15 st16">18</text>
<text transform="matrix(-0.7193 0.6947 -0.6947 -0.7193 240.4637 238.22)" class="st15 st16">18</text>
<text transform="matrix(-0.7193 0.6947 -0.6947 -0.7193 246.2737 244.2357)" class="st15 st16">14</text>
<text transform="matrix(-0.809 0.5878 -0.5878 -0.809 177.9859 182.1627)" class="st15 st19">17</text>
<text transform="matrix(-0.809 0.5878 -0.5878 -0.809 182.9474 188.8919)" class="st15 st19">19</text>
<text transform="matrix(-0.809 0.5878 -0.5878 -0.809 187.8651 195.6602)" class="st15 st19">15</text>
<text transform="matrix(-0.809 0.5878 -0.5878 -0.809 192.7806 202.4265)" class="st15 st19">17</text>
<text transform="matrix(-0.809 0.5878 -0.5878 -0.809 197.6979 209.1938)" class="st15 st19">13</text>
<text transform="matrix(-0.809 0.5878 -0.5878 -0.809 202.6118 215.9577)" class="st15 st19">16</text>
<text transform="matrix(-0.809 0.5878 -0.5878 -0.809 207.5289 222.7252)" class="st15 st19">18</text>
<text transform="matrix(-0.809 0.5878 -0.5878 -0.809 212.4442 229.4915)" class="st15 st19">14</text>
<text transform="matrix(-0.809 0.5878 -0.5878 -0.809 217.3608 236.257)" class="st15 st19">16</text>
<text transform="matrix(-0.809 0.5878 -0.5878 -0.809 222.2768 243.023)" class="st15 st19">19</text>
<text transform="matrix(-0.809 0.5878 -0.5878 -0.809 227.1919 249.7895)" class="st15 st19">19</text>
<text transform="matrix(-0.809 0.5878 -0.5878 -0.809 232.1092 256.5568)" class="st15 st19">15</text>
<text transform="matrix(-0.8829 0.4695 -0.4695 -0.8829 173.142 185.5722)" class="st15 st18">18</text>
<text transform="matrix(-0.8829 0.4695 -0.4695 -0.8829 177.1189 192.9263)" class="st15 st18">20</text>
<text transform="matrix(-0.8829 0.4695 -0.4695 -0.8829 181.0469 200.3131)" class="st15 st18">16</text>
<text transform="matrix(-0.8829 0.4695 -0.4695 -0.8829 184.9723 207.6968)" class="st15 st18">18</text>
<text transform="matrix(-0.8829 0.4695 -0.4695 -0.8829 188.8989 215.081)" class="st15 st18">14</text>
<text transform="matrix(-0.8829 0.4695 -0.4695 -0.8829 192.825 222.4655)" class="st15 st18">17</text>
<text transform="matrix(-0.8829 0.4695 -0.4695 -0.8829 196.7521 229.8516)" class="st15 st18">19</text>
<text transform="matrix(-0.8829 0.4695 -0.4695 -0.8829 200.6788 237.2357)" class="st15 st18">15</text>
<text transform="matrix(-0.8829 0.4695 -0.4695 -0.8829 204.6055 244.6199)" class="st15 st18">17</text>
<text transform="matrix(-0.8829 0.4695 -0.4695 -0.8829 208.5315 252.0044)" class="st15 st18">20</text>
<text transform="matrix(-0.8829 0.4695 -0.4695 -0.8829 212.4577 259.3888)" class="st15 st18">20</text>
<text transform="matrix(-0.8829 0.4695 -0.4695 -0.8829 216.3839 266.7721)" class="st15 st18">16</text>
<text transform="matrix(-0.9397 0.342 -0.342 -0.9397 167.8652 188.2885)" class="st15 st16">19</text>
<text transform="matrix(-0.9397 0.342 -0.342 -0.9397 170.7799 196.1256)" class="st15 st16">21</text>
<text transform="matrix(-0.9397 0.342 -0.342 -0.9397 173.6417 203.9861)" class="st15 st16">17</text>
<text transform="matrix(-0.9397 0.342 -0.342 -0.9397 176.501 211.8454)" class="st15 st16">19</text>
<text transform="matrix(-0.9397 0.342 -0.342 -0.9397 179.3622 219.704)" class="st15 st16">15</text>
<text transform="matrix(-0.9397 0.342 -0.342 -0.9397 182.2222 227.5652)" class="st15 st16">18</text>
<text transform="matrix(-0.9397 0.342 -0.342 -0.9397 185.0833 235.4238)" class="st15 st16">20</text>
<text transform="matrix(-0.9397 0.342 -0.342 -0.9397 187.9436 243.2828)" class="st15 st16">16</text>
<text transform="matrix(-0.9397 0.342 -0.342 -0.9397 190.8038 251.1418)" class="st15 st16">18</text>
<text transform="matrix(-0.9397 0.342 -0.342 -0.9397 193.665 259.0004)" class="st15 st16">21</text>
<text transform="matrix(-0.9397 0.342 -0.342 -0.9397 196.5243 266.8597)" class="st15 st16">21</text>
<text transform="matrix(-0.9397 0.342 -0.342 -0.9397 199.3848 274.7165)" class="st15 st16">17</text>
<text transform="matrix(-0.9782 0.2079 -0.2079 -0.9782 162.2513 190.2275)" class="st15 st22">20</text>
<text transform="matrix(-0.9782 0.2079 -0.2079 -0.9782 164.0477 198.3957)" class="st15 st22">22</text>
<text transform="matrix(-0.9782 0.2079 -0.2079 -0.9782 165.7863 206.5763)" class="st15 st22">18</text>
<text transform="matrix(-0.9782 0.2079 -0.2079 -0.9782 167.5248 214.7559)" class="st15 st22">20</text>
<text transform="matrix(-0.9782 0.2079 -0.2079 -0.9782 169.2634 222.9365)" class="st15 st22">16</text>
<text transform="matrix(-0.9782 0.2079 -0.2079 -0.9782 171.0027 231.1199)" class="st15 st22">19</text>
<text transform="matrix(-0.9782 0.2079 -0.2079 -0.9782 172.7407 239.2976)" class="st15 st22">21</text>
<text transform="matrix(-0.9782 0.2079 -0.2079 -0.9782 174.4807 247.4799)" class="st15 st22">17</text>
<text transform="matrix(-0.9782 0.2079 -0.2079 -0.9782 176.2198 255.6623)" class="st15 st22">19</text>
<text transform="matrix(-0.9782 0.2079 -0.2079 -0.9782 177.958 263.841)" class="st15 st22">22</text>
<text transform="matrix(-0.9782 0.2079 -0.2079 -0.9782 179.6966 272.0215)" class="st15 st22">22</text>
<text transform="matrix(-0.9976 6.975748e-02 -6.975748e-02 -0.9976 156.4293 191.3915)" class="st15 st20">21</text>
<text transform="matrix(-0.9976 6.975748e-02 -6.975748e-02 -0.9976 157.0733 199.7322)" class="st15 st20">23</text>
<text transform="matrix(-0.9976 6.975748e-02 -6.975748e-02 -0.9976 157.6567 208.0751)" class="st15 st20">19</text>
<text transform="matrix(-0.9976 6.975748e-02 -6.975748e-02 -0.9976 158.2389 216.4151)" class="st15 st20">21</text>
<text transform="matrix(-0.9976 6.975748e-02 -6.975748e-02 -0.9976 158.8235 224.7609)" class="st15 st20">17</text>
<text transform="matrix(-0.9976 6.975748e-02 -6.975748e-02 -0.9976 159.406 233.1058)" class="st15 st20">20</text>
<text transform="matrix(-0.9976 6.975748e-02 -6.975748e-02 -0.9976 159.9892 241.4458)" class="st15 st20">22</text>
<text transform="matrix(-0.9976 6.975748e-02 -6.975748e-02 -0.9976 160.5736 249.7886)" class="st15 st20">18</text>
<text transform="matrix(-0.9976 6.975748e-02 -6.975748e-02 -0.9976 161.1571 258.1335)" class="st15 st20">20</text>
<text transform="matrix(-0.9976 6.975748e-02 -6.975748e-02 -0.9976 161.7405 266.4764)" class="st15 st20">23</text>
<text transform="matrix(-0.9976 6.975748e-02 -6.975748e-02 -0.9976 162.3239 274.8193)" class="st15 st20">23</text>
<text transform="matrix(-0.9976 -6.975748e-02 6.975748e-02 -0.9976 150.5116 191.7084)" class="st15 st20">22</text>
<text transform="matrix(-0.9976 -6.975748e-02 6.975748e-02 -0.9976 149.9886 200.0556)" class="st15 st20">24</text>
<text transform="matrix(-0.9976 -6.975748e-02 6.975748e-02 -0.9976 149.4051 208.3995)" class="st15 st20">20</text>
<text transform="matrix(-0.9976 -6.975748e-02 6.975748e-02 -0.9976 148.8199 216.7403)" class="st15 st20">22</text>
<text transform="matrix(-0.9976 -6.975748e-02 6.975748e-02 -0.9976 148.2383 225.0843)" class="st15 st20">18</text>
<text transform="matrix(-0.9976 -6.975748e-02 6.975748e-02 -0.9976 147.6549 233.4282)" class="st15 st20">21</text>
<text transform="matrix(-0.9976 -6.975748e-02 6.975748e-02 -0.9976 147.0695 241.771)" class="st15 st20">23</text>
<text transform="matrix(-0.9976 -6.975748e-02 6.975748e-02 -0.9976 146.4881 250.114)" class="st15 st20">19</text>
<text transform="matrix(-0.9976 -6.975748e-02 6.975748e-02 -0.9976 145.9047 258.4569)" class="st15 st20">21</text>
<text transform="matrix(-0.9976 -6.975748e-02 6.975748e-02 -0.9976 145.3212 266.8008)" class="st15 st20">24</text>
<text transform="matrix(-0.9976 -6.975748e-02 6.975748e-02 -0.9976 144.7378 275.1437)" class="st15 st20">24</text>
<text transform="matrix(-0.9782 -0.2079 0.2079 -0.9782 144.578 191.2068)" class="st15 st22">23</text>
<text transform="matrix(-0.9782 -0.2079 0.2079 -0.9782 142.8989 199.3985)" class="st15 st22">25</text>
<text transform="matrix(-0.9782 -0.2079 0.2079 -0.9782 141.16 207.58)" class="st15 st22">21</text>
<text transform="matrix(-0.9782 -0.2079 0.2079 -0.9782 139.4214 215.7606)" class="st15 st22">23</text>
<text transform="matrix(-0.9782 -0.2079 0.2079 -0.9782 137.6825 223.9421)" class="st15 st22">19</text>
<text transform="matrix(-0.9782 -0.2079 0.2079 -0.9782 135.9439 232.1227)" class="st15 st22">22</text>
<text transform="matrix(-0.9782 -0.2079 0.2079 -0.9782 134.2022 240.3036)" class="st15 st22">24</text>
<text transform="matrix(-0.9782 -0.2079 0.2079 -0.9782 132.4665 248.4843)" class="st15 st22">20</text>
<text transform="matrix(-0.9782 -0.2079 0.2079 -0.9782 130.7279 256.6649)" class="st15 st22">22</text>
<text transform="matrix(-0.9782 -0.2079 0.2079 -0.9782 128.989 264.8464)" class="st15 st22">25</text>
<text transform="matrix(-0.9782 -0.2079 0.2079 -0.9782 127.2478 273.0249)" class="st15 st22">25</text>
<text transform="matrix(-0.9397 -0.342 0.342 -0.9397 138.8 189.8903)" class="st15 st16">24</text>
<text transform="matrix(-0.9397 -0.342 0.342 -0.9397 135.9956 197.7701)" class="st15 st16">26</text>
<text transform="matrix(-0.9397 -0.342 0.342 -0.9397 133.1355 205.6286)" class="st15 st16">22</text>
<text transform="matrix(-0.9397 -0.342 0.342 -0.9397 130.2753 213.4876)" class="st15 st16">24</text>
<text transform="matrix(-0.9397 -0.342 0.342 -0.9397 127.4149 221.347)" class="st15 st16">20</text>
<text transform="matrix(-0.9397 -0.342 0.342 -0.9397 124.5548 229.2056)" class="st15 st16">23</text>
<text transform="matrix(-0.9397 -0.342 0.342 -0.9397 121.6944 237.065)" class="st15 st16">25</text>
<text transform="matrix(-0.9397 -0.342 0.342 -0.9397 118.834 244.9244)" class="st15 st16">21</text>
<text transform="matrix(-0.9397 -0.342 0.342 -0.9397 115.9736 252.7839)" class="st15 st16">23</text>
<text transform="matrix(-0.9397 -0.342 0.342 -0.9397 113.1132 260.6433)" class="st15 st16">26</text>
<text transform="matrix(-0.9397 -0.342 0.342 -0.9397 110.2533 268.5013)" class="st15 st16">26</text>
<text transform="matrix(-0.9397 -0.342 0.342 -0.9397 107.3927 276.3612)" class="st15 st16">22</text>
<text transform="matrix(-0.8829 -0.4695 0.4695 -0.8829 133.2468 187.7741)" class="st15 st18">25</text>
<text transform="matrix(-0.8829 -0.4695 0.4695 -0.8829 129.3717 195.1862)" class="st15 st18">27</text>
<text transform="matrix(-0.8829 -0.4695 0.4695 -0.8829 125.4443 202.5716)" class="st15 st18">23</text>
<text transform="matrix(-0.8829 -0.4695 0.4695 -0.8829 121.5181 209.9549)" class="st15 st18">25</text>
<text transform="matrix(-0.8829 -0.4695 0.4695 -0.8829 117.591 217.34)" class="st15 st18">21</text>
<text transform="matrix(-0.8829 -0.4695 0.4695 -0.8829 113.664 224.7245)" class="st15 st18">24</text>
<text transform="matrix(-0.8829 -0.4695 0.4695 -0.8829 109.7376 232.1083)" class="st15 st18">26</text>
<text transform="matrix(-0.8829 -0.4695 0.4695 -0.8829 105.8124 239.4938)" class="st15 st18">22</text>
<text transform="matrix(-0.8829 -0.4695 0.4695 -0.8829 101.8855 246.8783)" class="st15 st18">24</text>
<text transform="matrix(-0.8829 -0.4695 0.4695 -0.8829 97.9614 254.2639)" class="st15 st18">27</text>
<text transform="matrix(-0.8829 -0.4695 0.4695 -0.8829 94.0326 261.6458)" class="st15 st18">27</text>
<text transform="matrix(-0.8829 -0.4695 0.4695 -0.8829 90.1079 269.0326)" class="st15 st18">23</text>
<text transform="matrix(-0.809 -0.5878 0.5878 -0.809 128.0536 184.8997)" class="st15 st19">26</text>
<text transform="matrix(-0.809 -0.5878 0.5878 -0.809 123.186 191.7005)" class="st15 st19">28</text>
<text transform="matrix(-0.809 -0.5878 0.5878 -0.809 118.2693 198.4674)" class="st15 st19">24</text>
<text transform="matrix(-0.809 -0.5878 0.5878 -0.809 113.3537 205.2329)" class="st15 st19">26</text>
<text transform="matrix(-0.809 -0.5878 0.5878 -0.809 108.4373 211.9995)" class="st15 st19">22</text>
<text transform="matrix(-0.809 -0.5878 0.5878 -0.809 103.5213 218.7654)" class="st15 st19">25</text>
<text transform="matrix(-0.809 -0.5878 0.5878 -0.809 98.6052 225.5315)" class="st15 st19">27</text>
<text transform="matrix(-0.809 -0.5878 0.5878 -0.809 93.6892 232.2975)" class="st15 st19">23</text>
<text transform="matrix(-0.809 -0.5878 0.5878 -0.809 88.7729 239.064)" class="st15 st19">25</text>
<text transform="matrix(-0.809 -0.5878 0.5878 -0.809 83.8589 245.8305)" class="st15 st19">28</text>
<text transform="matrix(-0.809 -0.5878 0.5878 -0.809 78.9415 252.595)" class="st15 st19">28</text>
<text transform="matrix(-0.809 -0.5878 0.5878 -0.809 74.0247 259.3622)" class="st15 st19">24</text>
<text transform="matrix(-0.7193 -0.6947 0.6947 -0.7193 123.3007 181.3472)" class="st15 st16">27</text>
<text transform="matrix(-0.7193 -0.6947 0.6947 -0.7193 117.5329 187.4035)" class="st15 st16">29</text>
<text transform="matrix(-0.7193 -0.6947 0.6947 -0.7193 111.7223 193.42)" class="st15 st16">25</text>
<text transform="matrix(-0.7193 -0.6947 0.6947 -0.7193 105.9128 199.4352)" class="st15 st16">27</text>
<text transform="matrix(-0.7193 -0.6947 0.6947 -0.7193 100.1035 205.4529)" class="st15 st16">23</text>
<text transform="matrix(-0.7193 -0.6947 0.6947 -0.7193 94.2937 211.4685)" class="st15 st16">26</text>
<text transform="matrix(-0.7193 -0.6947 0.6947 -0.7193 88.4835 217.4845)" class="st15 st16">28</text>
<text transform="matrix(-0.7193 -0.6947 0.6947 -0.7193 82.6756 223.5022)" class="st15 st16">24</text>
<text transform="matrix(-0.7193 -0.6947 0.6947 -0.7193 76.8651 229.5185)" class="st15 st16">26</text>
<text transform="matrix(-0.7193 -0.6947 0.6947 -0.7193 71.0567 235.5354)" class="st15 st16">29</text>
<text transform="matrix(-0.7193 -0.6947 0.6947 -0.7193 59.4362 247.5673)" class="st15 st16">25</text>
<text transform="matrix(-0.6157 -0.788 0.788 -0.6157 119.0921 177.168)" class="st15 st16">28</text>
<text transform="matrix(-0.6157 -0.788 0.788 -0.6157 112.5394 182.3659)" class="st15 st16">30</text>
<text transform="matrix(-0.6157 -0.788 0.788 -0.6157 105.9469 187.5133)" class="st15 st16">26</text>
<text transform="matrix(-0.6157 -0.788 0.788 -0.6157 99.3571 192.6622)" class="st15 st16">28</text>
<text transform="matrix(-0.6157 -0.788 0.788 -0.6157 92.7664 197.8118)" class="st15 st16">24</text>
<text transform="matrix(-0.6157 -0.788 0.788 -0.6157 86.1764 202.9609)" class="st15 st16">27</text>
<text transform="matrix(-0.6157 -0.788 0.788 -0.6157 79.5844 208.109)" class="st15 st16">29</text>
<text transform="matrix(-0.6157 -0.788 0.788 -0.6157 72.9947 213.2579)" class="st15 st16">25</text>
<text transform="matrix(-0.6157 -0.788 0.788 -0.6157 66.4039 218.4075)" class="st15 st16">27</text>
<text transform="matrix(-0.6157 -0.788 0.788 -0.6157 59.814 223.5565)" class="st15 st16">30</text>
<text transform="matrix(-0.6157 -0.788 0.788 -0.6157 46.6326 233.8557)" class="st15 st16">26</text>
<text transform="matrix(-0.5 -0.866 0.866 -0.5 115.5136 172.4285)" class="st15 st19">29</text>
<text transform="matrix(-0.5 -0.866 0.866 -0.5 101.0566 180.8432)" class="st15 st19">27</text>
<text transform="matrix(-0.5 -0.866 0.866 -0.5 93.813 185.0231)" class="st15 st19">29</text>
<text transform="matrix(-0.5 -0.866 0.866 -0.5 86.5704 189.207)" class="st15 st19">25</text>
<text transform="matrix(-0.5 -0.866 0.866 -0.5 79.3273 193.3867)" class="st15 st19">28</text>
<text transform="matrix(-0.5 -0.866 0.866 -0.5 72.0837 197.5689)" class="st15 st19">30</text>
<text transform="matrix(-0.5 -0.866 0.866 -0.5 64.8412 201.7505)" class="st15 st19">26</text>
<text transform="matrix(-0.5 -0.866 0.866 -0.5 57.598 205.9325)" class="st15 st19">28</text>
<text transform="matrix(-0.5 -0.866 0.866 -0.5 50.3554 210.1141)" class="st15 st19">31</text>
<text transform="matrix(-0.5 -0.866 0.866 -0.5 35.8691 218.4781)" class="st15 st19">27</text>
<text transform="matrix(-0.3746 -0.9272 0.9272 -0.3746 112.6024 167.2481)" class="st15 st16">30</text>
<text transform="matrix(-0.3746 -0.9272 0.9272 -0.3746 97.1142 173.5698)" class="st15 st16">28</text>
<text transform="matrix(-0.3746 -0.9272 0.9272 -0.3746 89.3608 176.7023)" class="st15 st16">30</text>
<text transform="matrix(-0.3746 -0.9272 0.9272 -0.3746 81.606 179.8353)" class="st15 st16">26</text>
<text transform="matrix(-0.3746 -0.9272 0.9272 -0.3746 73.8512 182.9683)" class="st15 st16">29</text>
<text transform="matrix(-0.3746 -0.9272 0.9272 -0.3746 58.343 189.2338)" class="st15 st16">27</text>
<text transform="matrix(-0.3746 -0.9272 0.9272 -0.3746 50.5877 192.367)" class="st15 st16">29</text>
<text transform="matrix(-0.3746 -0.9272 0.9272 -0.3746 27.3241 201.7679)" class="st15 st16">28</text>
<text transform="matrix(-0.2419 -0.9703 0.9703 -0.2419 110.4794 161.7075)" class="st15 st16">31</text>
<text transform="matrix(-0.2419 -0.9703 0.9703 -0.2419 94.2643 165.8144)" class="st15 st16">29</text>
<text transform="matrix(-0.2419 -0.9703 0.9703 -0.2419 78.0349 169.8625)" class="st15 st16">27</text>
<text transform="matrix(-0.2419 -0.9703 0.9703 -0.2419 69.9186 171.8839)" class="st15 st16">30</text>
<text transform="matrix(-0.2419 -0.9703 0.9703 -0.2419 53.6898 175.9318)" class="st15 st16">28</text>
<text transform="matrix(-0.2419 -0.9703 0.9703 -0.2419 45.5739 177.9551)" class="st15 st16">30</text>
<text transform="matrix(-0.2419 -0.9703 0.9703 -0.2419 21.2283 184.0246)" class="st15 st16">29</text>
<text transform="matrix(-0.1045 -0.9945 0.9945 -0.1045 92.487 157.7401)" class="st15 st18">30</text>
<text transform="matrix(-0.1045 -0.9945 0.9945 -0.1045 75.8521 159.489)" class="st15 st18">28</text>
<text transform="matrix(-0.1045 -0.9945 0.9945 -0.1045 67.5336 160.3631)" class="st15 st18">31</text>
<text transform="matrix(-0.1045 -0.9945 0.9945 -0.1045 50.8987 162.1111)" class="st15 st18">29</text>
<text transform="matrix(-0.1045 -0.9945 0.9945 -0.1045 17.628 165.61)" class="st15 st18">30</text>
<text transform="matrix(3.489968e-02 -0.9994 0.9994 3.489968e-02 91.8672 149.4977)" class="st15 st16">31</text>
<text transform="matrix(3.489968e-02 -0.9994 0.9994 3.489968e-02 75.1499 148.9139)" class="st15 st16">29</text>
<text transform="matrix(3.489968e-02 -0.9994 0.9994 3.489968e-02 50.0744 148.0382)" class="st15 st16">30</text>
<text transform="matrix(3.489968e-02 -0.9994 0.9994 3.489968e-02 16.6416 146.8707)" class="st15 st16">31</text>
<text transform="matrix(0.1736 -0.9848 0.9848 0.1736 75.931 138.339)" class="st15 st19">30</text>
<text transform="matrix(0.1736 -0.9848 0.9848 0.1736 51.2234 133.9816)" class="st15 st19">31</text>
<text transform="matrix(0.309 -0.9511 0.9511 0.309 78.1722 127.9761)" class="st15 st20">31</text>
<text transform="matrix(1 0 0 1 138.854 15.1807)" class="st15 st23">JAN</text>
<text transform="matrix(1 0 0 1 137.2622 48.6357)" class="st15 st23">MAY</text>
<text transform="matrix(1 0 0 1 137.5229 98.8154)" class="st15 st23">NOV</text>
<text transform="matrix(1 0 0 1 139.4507 23.5439)" class="st15 st23">FEB</text>
<text transform="matrix(1 0 0 1 137.2769 31.9082)" class="st15 st23">MAR</text>
<text transform="matrix(1 0 0 1 138.6421 40.2695)" class="st15 st23">APR</text>
<text transform="matrix(1 0 0 1 138.6753 56.9971)" class="st15 st23">JUN</text>
<text transform="matrix(1 0 0 1 139.6108 65.3613)" class="st15 st23">JUL</text>
<text transform="matrix(1 0 0 1 137.5229 73.7246)" class="st15 st23">AUG</text>
<text transform="matrix(1 0 0 1 139.4702 82.0879)" class="st15 st23">SEP</text>
<text transform="matrix(1 0 0 1 138.2202 90.4521)" class="st15 st23">OCT</text>
<text transform="matrix(1 0 0 1 138.3608 107.1797)" class="st15 st23">DEC</text>
<text transform="matrix(1 0 0 1 119.0923 160.6943)" class="st24 st15 st25">2019</text>
</svg>
