<svg id="Layer_1" data-name="Layer 1" xmlns="http://www.w3.org/2000/svg" viewBox="0 0 300 300"><defs><style>.cls-1{fill:#2b2b2b;}</style></defs><title>Artboard 3</title><path class="cls-1" d="M179.91,108.81v-9.5H120.67v9.5a51.07,51.07,0,0,0-7.88,7h-8.57a4.94,4.94,0,1,0,0,9.87h1.44a51,51,0,1,0,74.25-16.83ZM198,150.32a47.94,47.94,0,0,1-1.64,12.41V159a6.63,6.63,0,0,0-4.78-6.33l-6.74-1.92v-2.09a8.23,8.23,0,0,0,3.29-6.54v-3.3a8.23,8.23,0,0,0-8.23-8.22V112.91A47.74,47.74,0,0,1,198,150.32Zm-8.23,23h2.28c-.7,1.27-1.46,2.52-2.28,3.72Zm-82.91-3.29c-.5-1.08-1-2.17-1.37-3.29h89.59c-.42,1.12-.88,2.21-1.37,3.29Zm3.93,7c-.82-1.2-1.58-2.45-2.28-3.72h2.28Zm0-54.73v-3.29h3.29v3.29Zm6.58-3.29h27.48l2.46,1.64-2.46,1.65H117.38ZM158.52,124h11.4a13.17,13.17,0,0,1-11.4,11.41Zm0-3.29V109.3a13.16,13.16,0,0,1,11.4,11.4Zm-3.29,11.56a8.18,8.18,0,0,0-4.94-1.68,8.05,8.05,0,0,0-3.15.63,13.16,13.16,0,0,1-3-5.57h1.71l7.41-4.94-7.41-4.93h-.35a13.16,13.16,0,0,1,9.73-6.46Zm24.68,1.61a4.94,4.94,0,0,1,4.94,4.93v3.29a4.94,4.94,0,0,1-9.88,0V138.8a4.94,4.94,0,0,1,4.94-4.93Zm0,16.45a9,9,0,0,0,1.65-.16v1.13l-1.65,1.64-1.65-1.64v-1.13a9,9,0,0,0,1.65.16Zm-3.77,3.5,3.77,3.77,3.77-3.77,7,2a3.3,3.3,0,0,1,2.38,3.16v4.51h-3.29V160.2h-3.29v3.29H173.33V160.2H170v3.29h-3.29V159a3.3,3.3,0,0,1,2.38-3.16Zm-12.68,9.67h-3.3V160.2h-3.29v3.29H143.71V160.2h-3.29v3.29h-3.29V159a3.3,3.3,0,0,1,2.38-3.16l7-2,3.77,3.77,3.77-3.77,7,2a3.31,3.31,0,0,1,2.39,3.16Zm-11.52-12.2-1.65,1.64-1.64-1.64v-1.13a8.85,8.85,0,0,0,1.64.16,9,9,0,0,0,1.65-.16ZM150.29,147a4.94,4.94,0,0,1-4.94-4.94V138.8a4.94,4.94,0,0,1,9.88,0v3.29a4.94,4.94,0,0,1-4.94,4.94Zm-9.54-21.39a16.18,16.18,0,0,0,1.05,3.29H130.54v3.29h13.17c.22.29.46.58.7.86a8.15,8.15,0,0,0-1.65,2.44H130.54v3.29h11.52v3.29a8.2,8.2,0,0,0,3.29,6.54v2.1l-6.74,1.92a6.55,6.55,0,0,0-3.13,2,6.55,6.55,0,0,0-3.13-2l-6.74-1.92v-2.09a8.23,8.23,0,0,0,3.29-6.54v-3.3a8.25,8.25,0,0,0-4.94-7.53v-5.63ZM125.61,138.8v3.29a4.94,4.94,0,0,1-9.88,0V138.8a4.94,4.94,0,0,1,9.88,0Zm-4.94,11.52a9,9,0,0,0,1.65-.16v1.13l-1.65,1.64L119,151.29v-1.13a8.85,8.85,0,0,0,1.64.16Zm-3.77,3.5,3.77,3.77,3.77-3.77,7,2a3.31,3.31,0,0,1,2.39,3.16v4.51h-3.3V160.2h-3.29v3.29H114.09V160.2H110.8v3.29h-3.29V159a3.3,3.3,0,0,1,2.38-3.16Zm59.72-51.22v28.67a8.25,8.25,0,0,0-4.94,7.53v3.29a8.2,8.2,0,0,0,3.29,6.54v2.1l-6.74,1.92a6.55,6.55,0,0,0-3.13,2,6.55,6.55,0,0,0-3.13-2l-6.74-1.92v-2.09a8.23,8.23,0,0,0,3.29-6.54v-3.3s0-.05,0-.08a16.46,16.46,0,1,0-16.72-23H124V102.6Zm-55.95,10.32v2.85h-3.26c1-1,2.13-2,3.26-2.85Zm-18.1,7.78a1.65,1.65,0,0,1,1.65-1.64h3.29v3.29h-3.29a1.65,1.65,0,0,1-1.65-1.65Zm6.9,4.94h11.2v4.94a8.23,8.23,0,0,0-8.23,8.22v3.29a8.2,8.2,0,0,0,3.29,6.54v2.1L109,152.65a6.61,6.61,0,0,0-4.77,6.33v3.75a47.56,47.56,0,0,1,5.25-37.09ZM150.29,198a47.61,47.61,0,0,1-36.2-16.68v-1.42h59.24v-3.29H114.09v-3.29h72.4v3.29h-9.87v3.29h9.87v1.42A47.61,47.61,0,0,1,150.29,198Zm0,0"/><rect class="cls-1" x="127.25" y="105.89" width="3.29" height="3.29"/><rect class="cls-1" x="133.84" y="105.89" width="3.29" height="3.29"/><rect class="cls-1" x="140.42" y="105.89" width="3.29" height="3.29"/></svg>